#!OML:ASF F:\VICON\USERDATA\INSTALL\rory3\rory3.ASF
:FULLY-SPECIFIED
:DEGREES
2941
root 13.999 18.1949 4.29931 -183.54 189.853 -536.125
lowerback 5.54373 -1.97644 -6.92297
upperback -1.38302 -3.15067 -0.284936
thorax -4.19998 -1.38869 3.8617
lowerneck 1.76429 -16.9306 -15.0653
upperneck 37.0519 -28.1633 8.55888
head 16.7475 -13.5977 1.60845
rclavicle 5.34824e-014 6.75868e-015
rhumerus -38.9194 -12.6577 -80.2961
rradius 29.8358
rwrist 9.05646
rhand -14.3556 7.32438
rfingers 7.12502
rthumb 11.7862 -22.324
lclavicle 5.34824e-014 6.75868e-015
lhumerus -38.6288 18.2616 65.5078
lradius 34.1021
lwrist -0.922457
lhand -19.2502 29.1328
lfingers 7.12502
lthumb 7.06362 58.9949
rfemur 7.21555 2.38282 21.5411
rtibia 36.9114
rfoot 2.85274 12.2608
rtoes 11.2456
lfemur -10.7861 0.627791 -21.465
ltibia 19.4999
lfoot 5.26812 -17.0575
ltoes -6.14591
2942
root 14.0244 18.1687 4.16501 -183.269 189.633 -536.211
lowerback 5.57335 -1.8917 -6.56034
upperback -1.51298 -3.02382 -0.379078
thorax -4.38947 -1.3266 3.55619
lowerneck 1.57628 -16.7427 -15.0756
upperneck 37.0228 -27.8215 8.59827
head 16.7215 -13.4401 1.68442
rclavicle -6.55741e-014 -9.74045e-015
rhumerus -38.445 -13.0617 -80.4014
rradius 29.5474
rwrist 9.00293
rhand -14.7153 7.06307
rfingers 7.12502
rthumb 11.4393 -22.6049
lclavicle -6.55741e-014 -9.74045e-015
lhumerus -38.861 18.5388 65.0042
lradius 34.2601
lwrist -0.696504
lhand -19.6114 27.059
lfingers 7.12502
lthumb 6.71496 56.9325
rfemur 7.79662 2.82992 21.9369
rtibia 35.2423
rfoot 1.02517 11.6141
rtoes 11.0608
lfemur -11.8387 0.352714 -21.3452
ltibia 19.9031
lfoot 5.98788 -16.9733
ltoes -3.03462
2943
root 14.0491 18.1419 4.02787 -183.002 189.404 -536.267
lowerback 5.63106 -1.80714 -6.27288
upperback -1.63998 -2.90201 -0.424246
thorax -4.58354 -1.26526 3.34457
lowerneck 1.386 -16.4558 -14.9548
upperneck 36.918 -27.326 8.67576
head 16.609 -13.2016 1.80076
rclavicle -2.21521e-014 -5.96354e-015
rhumerus -38.1463 -13.1955 -80.4732
rradius 29.6337
rwrist 8.70695
rhand -14.7995 7.3174
rfingers 7.12502
rthumb 11.3582 -22.355
lclavicle -2.21521e-014 -5.96354e-015
lhumerus -39.116 18.8134 64.6233
lradius 34.3858
lwrist -0.568001
lhand -19.9018 24.9203
lfingers 7.12502
lthumb 6.43462 54.8026
rfemur 8.23082 3.11678 22.2616
rtibia 33.7332
rfoot -1.06802 10.9118
rtoes 9.50964
lfemur -12.8275 0.159769 -21.2585
ltibia 20.2021
lfoot 6.44048 -17.1102
ltoes -1.93964
2944
root 14.0712 18.1212 3.88543 -182.705 189.244 -536.356
lowerback 5.74853 -1.71876 -5.96224
upperback -1.80575 -2.7763 -0.421251
thorax -4.84996 -1.19968 3.1725
lowerneck 1.11399 -16.1548 -15.0125
upperneck 36.9761 -26.8649 8.8273
head 16.6621 -12.9796 1.94303
rclavicle -6.1586e-014 -1.01877e-014
rhumerus -37.8926 -13.0959 -80.506
rradius 29.8283
rwrist 8.45242
rhand -14.6427 7.76992
rfingers 7.12502
rthumb 11.5093 -21.8941
lclavicle -6.1586e-014 -1.01877e-014
lhumerus -39.4814 18.9265 64.4119
lradius 34.6508
lwrist -0.378223
lhand -19.7766 25.3306
lfingers 7.12502
lthumb 6.55549 55.2092
rfemur 8.54013 3.40964 22.6327
rtibia 32.3295
rfoot -3.03555 10.0844
rtoes 7.29176
lfemur -13.7579 0.15262 -21.1329
ltibia 20.3406
lfoot 6.71241 -17.4281
ltoes -2.12013
2945
root 14.0922 18.1037 3.73848 -182.524 189.122 -536.327
lowerback 5.88294 -1.63276 -5.75857
upperback -1.86465 -2.66129 -0.492523
thorax -5.01091 -1.14379 2.98099
lowerneck 0.714929 -15.8861 -15.0577
upperneck 37.1365 -26.4574 8.95846
head 16.8017 -12.7698 2.04895
rclavicle -1.55922e-015 -5.11871e-015
rhumerus -37.4419 -13.2936 -80.576
rradius 29.8903
rwrist 8.71392
rhand -14.8503 7.98753
rfingers 7.12502
rthumb 11.3091 -21.6876
lclavicle -1.55922e-015 -5.11871e-015
lhumerus -39.7953 19.0886 64.1626
lradius 35.0483
lwrist -0.258486
lhand -19.1028 28.3664
lfingers 7.12502
lthumb 7.2059 58.2237
rfemur 8.82291 3.62883 22.8592
rtibia 30.9999
rfoot -4.53682 9.40652
rtoes 6.97957
lfemur -14.5419 0.20707 -21.1108
ltibia 20.3356
lfoot 7.36563 -17.5148
ltoes -0.63488
2946
root 14.1095 18.0807 3.59224 -182.542 188.953 -536.43
lowerback 6.20236 -1.54949 -5.56548
upperback -1.81621 -2.55391 -0.477334
thorax -5.15826 -1.09265 2.89018
lowerneck 0.286582 -15.6383 -14.8478
upperneck 37.1266 -25.979 8.91726
head 16.7522 -12.5192 2.07594
rclavicle -1.61637e-014 -3.37934e-015
rhumerus -36.9046 -13.3958 -80.6981
rradius 29.9632
rwrist 8.81477
rhand -15.2495 8.12339
rfingers 7.12502
rthumb 10.9241 -21.5724
lclavicle -1.61637e-014 -3.37934e-015
lhumerus -40.0018 19.5365 63.8823
lradius 35.2534
lwrist -0.533422
lhand -18.6795 30.3729
lfingers 7.12502
lthumb 7.61452 60.2158
rfemur 9.24225 3.69277 23.2506
rtibia 29.7176
rfoot -5.69922 8.64607
rtoes 8.15265
lfemur -15.0437 0.218831 -20.9079
ltibia 20.1932
lfoot 8.23149 -17.6075
ltoes 1.49413
2947
root 14.1232 18.0586 3.44663 -182.599 188.847 -536.76
lowerback 6.6621 -1.40065 -5.21733
upperback -1.74491 -2.34704 -0.362172
thorax -5.3706 -0.994356 2.81016
lowerneck -0.200341 -15.4468 -14.5608
upperneck 37.0698 -25.5596 8.82983
head 16.6783 -12.2837 2.05618
rclavicle -5.65185e-014 -1.70458e-014
rhumerus -36.4533 -13.2214 -80.8577
rradius 30.2388
rwrist 8.36324
rhand -15.3149 7.98716
rfingers 7.12502
rthumb 10.861 -21.712
lclavicle -5.65185e-014 -1.70458e-014
lhumerus -40.0568 19.998 63.7583
lradius 35.2942
lwrist -0.768433
lhand -18.961 30.3879
lfingers 7.12502
lthumb 7.34276 60.2404
rfemur 9.69909 3.76318 23.9051
rtibia 28.4987
rfoot -6.78044 7.63899
rtoes 8.56408
lfemur -15.3745 0.296275 -20.4366
ltibia 19.8866
lfoot 8.96513 -17.7621
ltoes 3.13945
2948
root 14.1427 18.0496 3.30352 -182.541 188.849 -536.996
lowerback 6.95831 -1.2078 -4.80312
upperback -1.68714 -2.06666 -0.324125
thorax -5.51348 -0.865771 2.59663
lowerneck -0.731467 -15.285 -14.4413
upperneck 37.1753 -25.277 8.8964
head 16.7963 -12.1018 2.07915
rclavicle 4.06111e-015 -9.14409e-015
rhumerus -35.9488 -13.1667 -81.0033
rradius 30.466
rwrist 7.91548
rhand -15.235 7.71819
rfingers 7.12502
rthumb 10.9381 -21.9769
lclavicle 4.06111e-015 -9.14409e-015
lhumerus -40.0105 20.3085 63.7652
lradius 35.3351
lwrist -0.711682
lhand -19.2737 30.3204
lfingers 7.12502
lthumb 7.04093 60.1833
rfemur 9.94914 3.66186 24.276
rtibia 27.3492
rfoot -7.73577 6.89866
rtoes 8.78216
lfemur -15.7255 0.42329 -20.0973
ltibia 19.4751
lfoot 9.40625 -17.8631
ltoes 3.80016
2949
root 14.1677 18.0465 3.16281 -182.405 188.879 -537.094
lowerback 7.04885 -1.04318 -4.47814
upperback -1.65221 -1.81999 -0.299858
thorax -5.55545 -0.75389 2.41445
lowerneck -1.03996 -15.0674 -14.5217
upperneck 37.1813 -24.9468 9.10417
head 16.8692 -11.9282 2.21991
rclavicle 4.32046e-014 1.19271e-015
rhumerus -35.351 -13.1334 -81.081
rradius 30.567
rwrist 7.6289
rhand -15.3744 7.55891
rfingers 7.12502
rthumb 10.8036 -22.1432
lclavicle 4.32046e-014 1.19271e-015
lhumerus -40.0889 20.7312 63.6975
lradius 35.389
lwrist -0.556197
lhand -19.0746 30.8131
lfingers 7.12502
lthumb 7.2331 60.6695
rfemur 9.98312 3.40396 24.3673
rtibia 26.3347
rfoot -8.58017 6.48025
rtoes 9.45438
lfemur -16.0864 0.449894 -19.9125
ltibia 18.9642
lfoot 9.54355 -17.8494
ltoes 2.96964
2950
root 14.1932 18.0386 3.02019 -182.288 188.945 -537.309
lowerback 7.0889 -0.90232 -4.09367
upperback -1.50456 -1.59009 -0.218262
thorax -5.4462 -0.656416 2.2569
lowerneck -2.03565 -14.8457 -13.6382
upperneck 37.2605 -24.2712 8.40527
head 16.7079 -11.5425 1.88292
rclavicle -1.29412e-014 8.44835e-016
rhumerus -34.604 -12.9505 -81.211
rradius 30.6608
rwrist 7.43052
rhand -15.6628 7.37415
rfingers 7.12502
rthumb 10.5255 -22.3423
lclavicle -1.29412e-014 8.44835e-016
lhumerus -40.0583 21.4399 63.5804
lradius 35.3441
lwrist -0.387957
lhand -18.9852 30.6782
lfingers 7.12502
lthumb 7.31942 60.5316
rfemur 9.90621 3.16442 24.5877
rtibia 25.5356
rfoot -9.25951 6.11475
rtoes 9.83949
lfemur -16.3253 0.226082 -19.544
ltibia 18.3396
lfoot 9.40964 -17.5268
ltoes 0.530394
2951
root 14.216 18.0282 2.87473 -182.197 188.972 -537.53
lowerback 7.19179 -0.766192 -3.70398
upperback -1.26557 -1.36861 -0.165256
thorax -5.27507 -0.565356 2.06765
lowerneck -2.90706 -14.6392 -13.2308
upperneck 37.2124 -23.8581 8.39634
head 16.7358 -11.2627 1.83982
rclavicle 2.76435e-015 4.96962e-016
rhumerus -33.7622 -12.8233 -81.3691
rradius 30.7544
rwrist 7.46365
rhand -16.1719 7.32818
rfingers 7.12502
rthumb 10.0343 -22.4126
lclavicle 2.76435e-015 4.96962e-016
lhumerus -39.7295 22.0325 63.6451
lradius 35.2036
lwrist -0.217187
lhand -19.3319 30.0645
lfingers 7.12502
lthumb 6.9848 59.9293
rfemur 9.70103 2.98877 24.8703
rtibia 24.9593
rfoot -9.79457 5.61035
rtoes 10.2521
lfemur -16.5327 -0.148898 -19.0989
ltibia 17.6506
lfoot 9.4394 -16.7491
ltoes -1.03574
